<svg version="1.2" xmlns="http://www.w3.org/2000/svg" viewBox="0 0 100 100" width="100" height="100">
	<title>noun-arrow-3130580-svg</title>
	<style>
		.s0 { fill: #000000 } 
		.s1 { fill: none } 
	</style>
	<g id="Layer 2">
		<g id="Layer 1">
			<path id="Layer" class="s0" d="m70.6 98q-0.6 0-1.1-0.1-0.6-0.1-1.1-0.3-0.6-0.2-1-0.6-0.5-0.3-0.9-0.7l-39.5-38c-1.1-1.1-2-2.4-2.6-3.8-0.6-1.4-0.9-3-0.9-4.5 0-1.5 0.3-3.1 0.9-4.5 0.6-1.4 1.5-2.7 2.6-3.8l39.5-38c1.1-1.2 2.6-1.9 4.2-1.9 1.6 0 3.2 0.7 4.3 1.8 1.1 1.2 1.7 2.8 1.7 4.4-0.1 1.6-0.8 3.1-2 4.2l-39.2 37.8 39.2 37.8c0.9 0.8 1.4 1.9 1.7 3.1 0.2 1.1 0.1 2.3-0.3 3.4-0.5 1.1-1.2 2-2.2 2.7-1 0.7-2.1 1-3.3 1z"/>
			<path id="Layer" class="s1" d="m0 0h100v100h-100z"/>
		</g>
	</g>
</svg>